<?xml version="1.0" encoding="UTF-8"?>
<!-- Created with Inkscape (http://www.inkscape.org/) -->
<svg width="109.95mm" height="23.127mm" version="1.1" viewBox="0 0 109.95 23.127" xmlns="http://www.w3.org/2000/svg" xmlns:cc="http://creativecommons.org/ns#" xmlns:dc="http://purl.org/dc/elements/1.1/" xmlns:rdf="http://www.w3.org/1999/02/22-rdf-syntax-ns#">
 <metadata>
  <rdf:RDF>
   <cc:Work rdf:about="">
    <dc:format>image/svg+xml</dc:format>
    <dc:type rdf:resource="http://purl.org/dc/dcmitype/StillImage"/>
    <dc:title/>
   </cc:Work>
  </rdf:RDF>
 </metadata>
 <g transform="translate(30.786 -66.966)">
  <g transform="translate(2549.8 75.704)">
   <g transform="matrix(.030525 0 0 .030525 -2621.7 7.9898)" fill="#fff">
    <path d="m1350.8-536.05c-2.2747-6.4256-1.5591-12.582 1.6951-11.866 10.452 2.298 108.33 41.553 164.09 57.291 97.727 27.587 216.46 42.925 297.67 64.796 28.135 7.5776-34.037 112.57 6.8221 160.08 45.735 53.179 53.06 73.383 92.766 131.2 47.542 69.231 65.457 172.42 65.457 172.42s-5.6827 1.3846-9.1713-9.4034c-12.778-39.513-89.685-135.78-126.6-177.69-57.437-65.19-69.285-79.584-116.48-154.16-41.854-48.346-213.5-94.805-306.73-163.63-26.272-19.397-62.559-49.373-69.518-69.032z"/>
    <path d="m1385.1-437.46c3.2554 2.5091 127.16 94.161 285.37 142.5 28.632 8.7473 61.959 60.912 82.399 88.068 1.5078 2.0032-1.0176 6.0077-5.6493 4.5031-41.012-13.323-247.98-85.996-322.06-150.02-21.658-18.721-45.492-41.824-45.938-72.563-0.058-4.0346-2.5685-18.987 5.8722-12.482z"/>
    <path d="m1469.6-290.78c3.3578 2.3702 116.56 80.723 276.67 122.38 28.974 7.5378 64.461 58.258 86.022 84.532 1.5905 1.9382-0.7646 6.0451-5.4554 4.7362-41.535-11.59-236.94-67.494-313.64-128.36-22.424-17.795-47.207-39.878-48.943-70.571-0.2273-4.0286-3.3632-18.863 5.3431-12.717z"/>
    <path d="m1581.1-138.53c3.5139 2.1319 93.788 56.668 256.39 87.131 29.426 5.5128 65.318 45.716 88.647 70.433 1.7209 1.8233-0.9501 7.628-5.1143 5.1027-36.358-22.048-144.19-32.541-268.75-85.807-26.322-11.256-71.772-33.305-75.629-63.804-0.5058-4.0031-4.6617-18.584 4.4494-13.057z"/>
   </g>
   <g transform="matrix(-.030525 0 0 .030525 -2498.6 7.9898)" fill="#fff">
    <path d="m1350.8-536.05c-2.2747-6.4256-1.5591-12.582 1.6951-11.866 10.452 2.298 108.33 41.553 164.09 57.291 97.727 27.587 216.46 42.925 297.67 64.796 28.135 7.5776-34.037 112.57 6.8221 160.08 45.735 53.179 53.06 73.383 92.766 131.2 47.542 69.231 65.457 172.42 65.457 172.42s-5.6827 1.3846-9.1713-9.4034c-12.778-39.513-89.685-135.78-126.6-177.69-57.437-65.19-69.285-79.584-116.48-154.16-41.854-48.346-213.5-94.805-306.73-163.63-26.272-19.397-62.559-49.373-69.518-69.032z"/>
    <path d="m1385.1-437.46c3.2554 2.5091 127.16 94.161 285.37 142.5 28.632 8.7473 61.959 60.912 82.399 88.068 1.5078 2.0032-1.0176 6.0077-5.6493 4.5031-41.012-13.323-247.98-85.996-322.06-150.02-21.658-18.721-45.492-41.824-45.938-72.563-0.058-4.0346-2.5685-18.987 5.8722-12.482z"/>
    <path d="m1469.6-290.78c3.3578 2.3702 116.56 80.723 276.67 122.38 28.974 7.5378 64.461 58.258 86.022 84.532 1.5905 1.9382-0.7646 6.0451-5.4554 4.7362-41.535-11.59-236.94-67.494-313.64-128.36-22.424-17.795-47.207-39.878-48.943-70.571-0.2273-4.0286-3.3632-18.863 5.3431-12.717z"/>
    <path d="m1581.1-138.53c3.5139 2.1319 93.788 56.668 256.39 87.131 29.426 5.5128 65.318 45.716 88.647 70.433 1.7209 1.8233-0.9501 7.628-5.1143 5.1027-36.358-22.048-144.19-32.541-268.75-85.807-26.322-11.256-71.772-33.305-75.629-63.804-0.5058-4.0031-4.6617-18.584 4.4494-13.057z"/>
   </g>
   <path d="m-2560.5 9.5597a9.6597 2.4149 0 0 0-9.6597 2.4149 9.6597 2.4149 0 0 0 9.6597 2.4149 9.6597 2.4149 0 0 0 9.6597-2.4149 9.6597 2.4149 0 0 0-9.6597-2.4149zm0 0.41276a8.0087 2.0022 0 0 1 8.0087 2.0021 8.0087 2.0022 0 0 1-8.0087 2.0022 8.0087 2.0022 0 0 1-8.0086-2.0022 8.0087 2.0022 0 0 1 8.0086-2.0021z" fill="#fd5"/>
   <text x="-2505.6326" y="6.7756619" fill="#000000" font-family="sans-serif" font-size="14.077px" letter-spacing="0px" stroke-width=".87981" text-align="center" text-anchor="middle" word-spacing="0px" style="line-height:1.25" xml:space="preserve"><tspan x="-2505.6326" y="6.7756619" fill="#ffffff" font-family="'Poor Richard'" stroke-width=".87981" text-align="center" text-anchor="middle">Angels &amp; Co</tspan></text>
  </g>
 </g>
</svg>
